PathFileType	4	(X/Y/Z)	Patient4_TMGait_0pt4_02_left_09.trc.trc
DataRate	CameraRate	NumFrames	NumMarkers	Units	OrigDataRate	OrigDataStartFrame	OrigNumFrames
77.777777777778	77.777777777778	5	33	mm	77.777777777778	89	       141
Frame#	Time	Sacral			L.Shoulder			Chest			R.Shoulder			Neck			R.ASIS			L.ASIS			R.Thigh.Superior			R.Thigh.Lateral			R.Thigh.Inferior			R.Patella			L.Thigh.Superior			L.Thigh.Lateral			L.Thigh.Inferior			L.Patella			L.Shank.Superior			L.Shank.Lateral			L.Shank.Inferior			R.Shank.Superior			R.Shank.Lateral			R.Shank.Inferior			R.Heel			R.Midfoot.Superior			R.Midfoot.Lateral			R.Toe			L.Heel			L.Midfoot.Lateral			L.Midfoot.Superior			L.Toe			L.Elbow			L.Wrist			R.Elbow			R.Wrist			
		X1	Y1	Z1	X2	Y2	Z2	X3	Y3	Z3	X4	Y4	Z4	X5	Y5	Z5	X6	Y6	Z6	X7	Y7	Z7	X8	Y8	Z8	X9	Y9	Z9	X10	Y10	Z10	X11	Y11	Z11	X12	Y12	Z12	X13	Y13	Z13	X14	Y14	Z14	X15	Y15	Z15	X16	Y16	Z16	X17	Y17	Z17	X18	Y18	Z18	X19	Y19	Z19	X20	Y20	Z20	X21	Y21	Z21	X22	Y22	Z22	X23	Y23	Z23	X24	Y24	Z24	X25	Y25	Z25	X26	Y26	Z26	X27	Y27	Z27	X28	Y28	Z28	X29	Y29	Z29	X30	Y30	Z30	X31	Y31	Z31	X32	Y32	Z32	X33	Y33	Z33	

89	13.201428571429	903.383085758839	992.013272496389	477.917037660200	1083.166564371479	1428.343729831155	304.724166820344	1176.407564707413	1361.970508682777	472.045479200445	1078.506550342219	1431.379135989305	640.217068374200	1055.792593040454	1489.061442064894	461.272195084781	1131.982453499496	940.770133269677	605.180267712091	1128.228273009986	957.575048266863	328.795156833911	1192.641082067908	745.964396075905	577.108854820482	1120.762116369799	630.570986348835	636.422332159512	1205.082727565568	584.695770390771	558.606086774525	1212.836658876668	495.109221401166	565.534879442891	1177.705882494989	741.148915599698	357.160670611345	1103.457754618149	622.721789222118	283.387070646040	1192.542127383829	543.977978519093	344.083158124988	1189.760645369863	458.815654557450	339.199323158598	1125.176000924434	396.669953439055	330.854760537531	988.239870451700	345.304338225302	280.317255852394	981.663847710650	217.040852798510	336.630844910255	1182.191255278833	404.368006545628	573.436267748063	1108.875834658793	302.801884143870	637.686116514969	1149.883583625516	206.632609292998	575.406862472983	1014.682703048835	42.053297131278	546.564053269505	1184.188016236562	98.365564446486	584.940393829488	1097.301741448572	37.313600286115	623.061864490133	1304.997603947621	48.601720760894	613.935165254224	796.117413739656	132.515508782663	372.276054575352	859.993101892149	97.818997238267	292.010865774486	961.554569881336	121.381871745293	315.202628823671	1055.095498775974	33.814181625312	285.924757259437	1090.703813791052	1078.303724838866	181.254440973448	1307.880997965247	934.002400755771	207.034225055161	1026.766640182598	1085.607691432723	756.897561118757	1136.730733043935	848.685768334785	772.184693003864	
90	13.214285714286	903.066901545636	991.962219998104	481.852026029303	1080.180702853586	1428.778394576736	307.450412231787	1175.409865957272	1362.410771043076	473.697709967375	1079.313893253594	1431.418808075716	643.021065674393	1054.444112465769	1489.263222455311	464.365286720048	1132.688598459264	941.116908638197	607.097385316886	1126.681449735215	957.833394655134	330.803278202420	1191.796719240768	745.386151258527	579.509862707909	1119.016865658831	630.249258460314	638.365617443364	1202.957165960695	584.042347886413	560.441104259264	1209.956930214335	494.425407501753	566.926178199763	1181.155266050319	744.342294125456	358.469066040155	1110.780062818645	624.339516189317	284.078959841948	1202.639183404798	547.680425372756	343.784718091621	1201.412378770579	461.675763353719	338.559305109039	1135.579711146226	399.134340654165	330.672925132455	996.762112808677	351.627783240887	281.018410589816	987.359840524038	223.255356634102	336.996659642230	1178.957639195374	403.747214464261	574.548773727481	1105.338961525995	302.282680873212	638.564122477381	1145.590338280253	206.190870366377	575.846244379407	1009.545159918621	42.050186669937	546.660794109833	1179.105104408121	98.383392330223	585.297361336860	1092.134821929638	37.272253945268	623.224022678212	1299.858957396134	48.422308765240	614.201504927971	799.024308264590	145.681762624707	373.475996960037	861.243768488069	108.131024639531	292.935392096475	964.261781635857	126.851804647418	315.725798706102	1053.233804158871	33.640603105179	286.116171950492	1084.881833034566	1078.094982088478	184.997938544753	1297.393115183327	925.789931466217	207.235584561350	1034.329188397298	1084.780808193224	760.931293470411	1151.103719534935	851.092228192650	773.602916543220	
91	13.227142857143	902.654949280986	992.060502997620	485.667040152961	1077.162588591707	1429.218322608811	309.975405685666	1174.442717842993	1362.890781959494	475.100751746205	1080.281918684363	1431.564988731731	645.598846106541	1053.186659204339	1489.536293319652	467.237194926528	1133.257936594229	941.469967765555	608.884856521852	1124.849782190801	958.061325937003	332.787115146803	1190.670361124363	744.809933383608	581.572191434662	1117.109790487066	629.994034230551	640.198251042911	1200.496179437313	583.420282510121	562.053510675575	1206.706904195967	493.769794579427	568.212298638725	1184.255974300455	747.769188703778	359.472103391743	1117.394778512807	626.394655868353	284.555539502631	1211.932489688875	551.872039428888	343.167400480278	1212.382034655445	465.162945647023	337.702373810677	1145.613223874340	402.096875245291	330.320535986955	1005.211216669781	357.751166388657	281.651193929507	993.622090451165	229.267416551927	337.395776392116	1175.408126079432	403.173633209841	575.591555631694	1101.510692529158	301.788067524205	639.372330486852	1141.074353088768	205.774732682199	576.245567873516	1004.299522935470	42.048084853482	546.752712849168	1173.925326539663	98.341426704751	585.610156460775	1086.857128947826	37.218326343206	623.363745088454	1294.621145532648	48.153703713328	614.427349157303	803.177820149493	157.431508812651	374.884611415070	863.860057400601	117.644794068837	293.972569264365	968.059088112560	132.249868434786	316.304697606018	1053.107402902277	33.840860027461	286.118943483142	1078.979126534158	1077.885657055737	188.631538359203	1286.009617204338	917.195356101704	207.183254641785	1042.148087542282	1084.251880491738	764.813564731820	1165.900498358313	854.147284419341	774.648516938291	
92	13.240000000000	902.157919082858	992.319021292269	489.340125080255	1074.169893071693	1429.679526667407	312.305557229287	1173.523005262462	1363.421353323142	476.276749083693	1081.393574613549	1431.838672585154	647.945536409876	1052.038283328354	1489.898409963633	469.878488825536	1133.695524204471	941.831970149752	610.556651311358	1122.770856594747	958.299040561803	334.751742218096	1189.294670147003	744.260905165903	583.252254005837	1115.074035657544	629.824765720399	641.903082472264	1197.725754130229	582.839849538316	563.421055001096	1203.114858146095	493.162375805606	569.366479494659	1186.946363003769	751.390561495680	360.229884238000	1123.195905913941	628.850995480552	284.856752763142	1220.289134908927	556.476707438113	342.278063976695	1222.504487696862	469.208561539209	336.633201352945	1155.148428089274	405.490582905168	329.787918882145	1013.486752251326	363.420425512759	282.195171647913	1000.523424061879	234.777107620525	337.754743529592	1171.578525256808	402.667752593506	576.549213565578	1097.439993855641	301.342378427156	640.106017858009	1136.388575602706	205.402178120440	576.602200166381	999.000324534143	42.051995920936	546.849107610201	1168.695170168354	98.252935080462	585.871268793967	1081.525398182715	37.164764734060	623.488937679995	1289.337818718853	47.829350477506	614.619436767289	808.720617639981	167.091217577803	376.408849828208	868.070567789595	125.778409731258	295.031393221761	973.167540171121	137.248701006055	316.822867894788	1055.178876653831	34.453167244258	285.830122687415	1073.015836567454	1077.698010583024	192.173712535954	1273.678249113719	908.323787711699	206.894852204166	1050.178783033430	1084.036539384309	768.496290159614	1181.092905928341	857.920739204211	775.274256687190	
93	13.252857142857	901.584278654654	992.746429446396	492.863634210327	1071.255836615995	1430.176157580874	314.454216369223	1172.666199193993	1364.010221000017	477.253159691773	1082.631356979421	1432.258151191116	650.063618270219	1051.013982828759	1490.363535441709	472.286351808976	1134.007869294479	942.204780614449	612.117626747508	1120.491746025243	958.598017492066	336.684952583573	1187.698463949681	743.754674076722	584.552161159776	1112.906746156870	629.751186539523	643.466558760115	1194.662364252057	582.305532346822	564.545154256654	1199.199231769918	492.620338840918	570.368665895299	1189.177724203546	755.164237240017	360.810012717797	1128.129090807726	631.653108434394	285.026357967894	1227.631099839186	561.400642853327	341.173023268030	1231.665299367620	473.729223751973	335.372142440516	1164.111633107421	409.229166282127	329.072479942194	1021.546832412099	368.384018579410	282.622563686352	1008.175491443571	239.500410413513	337.987963755326	1167.493242458289	402.246419040228	577.408466320667	1093.160460615736	300.965068693220	640.756920817146	1131.573712291471	205.087640281209	576.913908429392	993.691839781950	42.065277961074	546.953935819778	1163.450795113930	98.133010023791	586.079935967686	1076.184642638468	37.120966434232	623.604943901068	1284.050408286217	47.479997484611	614.785582273176	815.810521169240	174.093691865441	377.928592046643	874.101393097128	132.021259182122	295.996649447700	979.821770565449	141.524792359851	317.151748868271	1059.867269253076	35.463728114664	285.142514682621	1067.010743566537	1077.557765133313	195.640163526415	1260.361778825761	899.303743008961	206.401029322976	1058.371979877715	1084.144464834119	771.936643306870	1196.640621173484	862.483565481772	775.436417374219	
